#!OML:ASF F:\VICON\USERDATA\INSTALL\SteveWalk\SteveWalk.ASF
:FULLY-SPECIFIED
:DEGREES
77
root -0.32094 16.3739 -29.8066 15.5717 -3.18918 2.71407
lowerback -13.9098 -0.19578 -3.60092
upperback -4.91127 0.241645 -0.749517
thorax 2.60604 0.13309 1.2873
lowerneck -3.67753 0.208403 0.54023
upperneck 8.47068 0.299039 -0.677095
head 3.37081 0.138741 -0.302878
rclavicle -1.90321e-015 -2.11209e-014
rhumerus -42.67 -14.2248 -79.12
rradius 23.1142
rwrist 2.93115
rhand -15.4665 -34.4198
rfingers 7.12502
rthumb 10.7148 -64.1265
lclavicle -1.90321e-015 -2.11209e-014
lhumerus -38.5574 29.299 68.675
lradius 18.523
lwrist -16.185
lhand -16.1657 -14.2062
lfingers 7.12502
lthumb 10.0403 15.5343
rfemur -42.0457 -4.3034 19.5837
rtibia 72.0564
rfoot -10.2174 1.49397
rtoes -11.0355
lfemur -27.5686 -0.584668 -25.0274
ltibia 35.9619
lfoot -21.9444 -1.039
ltoes -5.70606
78
root -0.311582 16.365 -29.5949 15.4683 -2.52716 2.76384
lowerback -13.7466 -0.429559 -3.39873
upperback -4.9458 -0.101508 -0.742516
thorax 2.49891 -0.0363476 1.12665
lowerneck -3.34426 0.22401 0.651903
upperneck 8.25279 0.309579 -0.635477
head 3.23193 0.149613 -0.307831
rclavicle -1.74713e-017 1.85367e-014
rhumerus -44.0062 -16.6568 -76.6926
rradius 21.169
rwrist 6.1443
rhand -15.1277 -33.7491
rfingers 7.12502
rthumb 11.0416 -63.4386
lclavicle -1.74713e-017 1.85367e-014
lhumerus -36.6336 27.4819 70.3791
lradius 19.0823
lwrist -14.193
lhand -16.3474 -17.1412
lfingers 7.12502
lthumb 9.865 12.6077
rfemur -43.0292 -4.92595 19.969
rtibia 70.6618
rfoot -11.3189 1.01239
rtoes -10.7623
lfemur -26.434 -0.43185 -25.1194
ltibia 35.7548
lfoot -22.6108 -1.40645
ltoes -6.31889
79
root -0.311957 16.3544 -29.3788 15.3986 -2.14704 2.90673
lowerback -13.8 -0.694611 -3.48769
upperback -4.89063 -0.438471 -0.66841
thorax 2.60104 -0.204934 1.20086
lowerneck -3.12401 0.367445 0.633602
upperneck 7.98033 0.50073 -0.604855
head 3.09767 0.245343 -0.287203
rclavicle -1.47633e-015 1.98785e-015
rhumerus -45.2963 -19.6498 -73.4618
rradius 19.0105
rwrist 10.4139
rhand -14.9273 -33.8304
rfingers 7.12502
rthumb 11.2349 -63.5095
lclavicle -1.47633e-015 1.98785e-015
lhumerus -34.8176 25.573 72.1004
lradius 19.9591
lwrist -11.7683
lhand -16.4364 -18.889
lfingers 7.12502
lthumb 9.77915 10.864
rfemur -43.8677 -5.20176 20.2695
rtibia 68.9686
rfoot -12.403 0.044951
rtoes -12.0006
lfemur -25.4482 -0.250604 -25.2643
ltibia 35.5849
lfoot -23.1489 -2.3935
ltoes -4.49267
80
root -0.313219 16.3423 -29.1651 15.4215 -1.94603 2.95338
lowerback -14.095 -0.851345 -3.51014
upperback -4.70224 -0.626808 -0.59893
thorax 2.96726 -0.305461 1.25262
lowerneck -3.28454 0.446219 0.673758
upperneck 7.98248 0.600005 -0.568712
head 3.12963 0.296861 -0.278691
rclavicle 5.20631e-015 7.65399e-015
rhumerus -46.7708 -22.5787 -70.0522
rradius 17.3201
rwrist 14.6066
rhand -14.7501 -33.7219
rfingers 7.12502
rthumb 11.4058 -63.3917
lclavicle 5.20631e-015 7.65399e-015
lhumerus -32.7747 23.3691 73.9185
lradius 21.129
lwrist -9.22814
lhand -16.3454 -17.6949
lfingers 7.12502
lthumb 9.86697 12.0539
rfemur -44.7661 -5.14353 20.5936
rtibia 67.0351
rfoot -13.194 -1.07469
rtoes -11.9335
lfemur -24.6196 0.138333 -25.3509
ltibia 35.5094
lfoot -23.6914 -3.17107
ltoes -3.74812
81
root -0.312368 16.3308 -28.9596 15.5484 -1.5732 3.05322
lowerback -14.1599 -0.994441 -3.53354
upperback -4.71753 -0.81037 -0.577762
thorax 2.99531 -0.39646 1.25707
lowerneck -3.24905 0.367825 0.784193
upperneck 8.04344 0.494571 -0.647777
head 3.14388 0.245014 -0.327512
rclavicle 4.14182e-015 9.6659e-015
rhumerus -49.1208 -25.7452 -65.7538
rradius 15.8601
rwrist 19.3758
rhand -14.5688 -33.17
rfingers 7.12502
rthumb 11.5806 -62.83
lclavicle 4.14182e-015 9.6659e-015
lhumerus -31.0679 20.885 75.4885
lradius 22.3397
lwrist -6.93632
lhand -16.5769 -15.9541
lfingers 7.12502
lthumb 9.64355 13.8051
rfemur -45.77 -5.3246 20.8736
rtibia 64.8183
rfoot -13.7215 -1.84477
rtoes -11.1571
lfemur -23.884 0.644865 -25.4952
ltibia 35.4506
lfoot -24.3555 -3.59613
ltoes -5.05894
82
root -0.317465 16.3226 -28.7555 15.5867 -1.355 2.87907
lowerback -13.8384 -1.03234 -3.36201
upperback -5.02974 -0.909125 -0.469111
thorax 2.49886 -0.435149 1.26416
lowerneck -2.46519 0.309203 0.620924
upperneck 7.9315 0.415543 -0.464865
head 2.95536 0.2083 -0.243083
rclavicle -1.13164e-014 -1.67476e-014
rhumerus -52.8964 -29.675 -59.2873
rradius 14.2369
rwrist 25.9716
rhand -14.5618 -32.7053
rfingers 7.12502
rthumb 11.5874 -62.3649
lclavicle -1.13164e-014 -1.67476e-014
lhumerus -30.1631 18.6673 76.528
lradius 23.6501
lwrist -5.1631
lhand -16.7852 -14.749
lfingers 7.12502
lthumb 9.44262 15.0195
rfemur -46.5466 -5.23093 21.4059
rtibia 62.3013
rfoot -14.2316 -2.202
rtoes -9.0286
lfemur -23.0151 1.11451 -25.2837
ltibia 35.2495
lfoot -24.8632 -4.0325
ltoes -5.29778
83
root -0.325721 16.3278 -28.5415 15.5602 -1.28545 2.43648
lowerback -13.7919 -1.01035 -3.07599
upperback -4.67977 -0.920183 -0.249411
thorax 2.84184 -0.449109 1.32852
lowerneck -3.78769 0.261827 0.579642
upperneck 8.32311 0.336433 -0.322881
head 3.34009 0.171968 -0.192598
rclavicle -4.1738e-015 -1.02374e-014
rhumerus -56.4841 -34.3709 -51.9497
rradius 12.7514
rwrist 33.3455
rhand -14.5279 -32.4057
rfingers 7.12502
rthumb 11.6201 -62.0635
lclavicle -4.1738e-015 -1.02374e-014
lhumerus -28.1202 17.2379 77.6224
lradius 24.8645
lwrist -3.7736
lhand -17.0238 -13.7558
lfingers 7.12502
lthumb 9.21238 16.023
rfemur -47.0456 -4.91352 22.1498
rtibia 59.5602
rfoot -15.0326 -1.81514
rtoes -3.60841
lfemur -21.9195 1.48624 -24.74
ltibia 34.7462
lfoot -25.0587 -4.70363
ltoes -4.46678
84
root -0.331572 16.3382 -28.3163 15.5018 -1.04878 2.36031
lowerback -14.0313 -1.12564 -3.07056
upperback -4.70194 -1.07071 -0.0841619
thorax 2.95738 -0.524231 1.47084
lowerneck -3.12463 0.130869 0.649301
upperneck 8.13381 0.176522 -0.53032
head 3.14788 0.0874488 -0.277915
rclavicle -6.5265e-016 9.64106e-015
rhumerus -61.3756 -37.0249 -44.4157
rradius 11.9361
rwrist 39.5587
rhand -14.3921 -32.4956
rfingers 7.12502
rthumb 11.751 -62.146
lclavicle -6.5265e-016 9.64106e-015
lhumerus -27.4038 15.2944 78.4178
lradius 26.4486
lwrist -1.98386
lhand -17.2153 -12.4601
lfingers 7.12502
lthumb 9.02761 17.3267
rfemur -47.4014 -4.97799 22.5216
rtibia 56.7142
rfoot -15.1065 -3.7091
rtoes -6.62008
lfemur -20.6301 1.75579 -24.5563
ltibia 34.0324
lfoot -25.1574 -5.57773
ltoes -3.03924
